<svg width="18.302" xmlns="http://www.w3.org/2000/svg" height="18.292" fill="none"><g data-testid="attachment-svgrepo-com" style="fill: rgb(0, 0, 0);"><g data-testid="svg-g" style="fill: rgb(0, 0, 0);"><rect width="18.302" height="18.292" style="fill: none;" ry="0" fill="none" rx="0" class="fills" data-testid="svg-rect"/><g data-testid="svg-path"><path d="m14.79 9.741-4.719 4.715a4.003 4.003 0 0 1-5.661 0 3.998 3.998 0 0 1 0-5.658l5.527-5.524a2.669 2.669 0 0 1 3.774 3.772L8.184 12.57a1.334 1.334 0 0 1-1.887-1.886l5.527-5.524" fill="none" style="fill: none;" class="fills"/><g stroke-dasharray="0,0" fill-rule="evenodd" fill="none" class="strokes"><path d="m14.79 9.741-4.719 4.715a4.003 4.003 0 0 1-5.661 0 3.998 3.998 0 0 1 0-5.658l5.527-5.524a2.669 2.669 0 0 1 3.774 3.772L8.184 12.57a1.334 1.334 0 0 1-1.887-1.886l5.527-5.524" style="fill: none; stroke-width: 2; stroke: rgb(255, 255, 255); stroke-opacity: 1;" class="stroke-shape"/></g></g></g></g></svg>